<?xml version="1.0" encoding="utf-8"?>
<!-- Decoded by svgb2svg converter version 1.1.0 -->
<!DOCTYPE svg PUBLIC "-//W3C//DTD SVG 1.0//EN" "http://www.w3.org/TR/2001/REC-SVG-20010904/DTD/svg10.dtd">
<svg xmlns="http://www.w3.org/2000/svg" baseProfile="tiny" height="120" viewBox="0 0 116 120" width="116">
  <rect fill="none" height="120" width="116"/>
  <path d="M40.051,30.736C34.181,38.873,31.205,49.731,31.205,63.009C31.205,75.634,33.41,85.304,37.757,91.749C42.272,98.443,49.117,101.838,58.104,101.838C66.614,101.838,73.28,99.088,77.918,93.663C82.481,88.327,84.794,81.08,84.794,72.124C84.794,64.199,82.701,57.816,78.575,53.152C74.385,48.42,68.446,46.02,60.925,46.02C55.787,46.02,51.237,47.292,47.31,49.755C48.35,44.021,50.225,39.4,52.977,36.069C56.376,31.959,60.8,29.961,66.5,29.961C70.105,29.961,73.568,30.32,76.794,31.029L79.223,31.563L79.223,19.366L77.518,19.112C73.284,18.481,69.228,18.161,65.462,18.161C54.619,18.162,46.07,22.392,40.051,30.736zM49.688,85.702L49.688,85.702C47.595,82.26,46.534,77.204,46.534,70.674C46.534,66.687,47.579,63.533,49.729,61.035C51.803,58.622,54.645,57.45,58.417,57.45C62.087,57.45,64.752,58.651,66.563,61.123C68.488,63.755,69.464,67.552,69.464,72.406C69.464,78.951,68.455,83.694,66.466,86.503C64.602,89.132,61.866,90.41,58.103,90.41C54.365,90.41,51.612,88.87,49.688,85.702z" fill="#2D307C"/>
  <path d="M77.222,21.09L77.222,29.076C73.839,28.333,70.267,27.962,66.499,27.962C60.222,27.962,55.202,30.24,51.435,34.796C47.669,39.353,45.406,45.87,44.639,54.353C48.986,50.133,54.416,48.021,60.925,48.021C67.884,48.021,73.267,50.174,77.077,54.478C80.888,58.785,82.794,64.666,82.794,72.124C82.794,80.633,80.661,87.377,76.398,92.363C72.135,97.348,66.039,99.838,58.104,99.838C49.788,99.838,43.556,96.771,39.416,90.631C35.275,84.492,33.206,75.284,33.206,63.009C33.206,50.105,36.026,39.735,41.674,31.905C47.322,24.075,55.249,20.161,65.462,20.161C69.153,20.162,73.073,20.472,77.222,21.09zM58.104,92.41C62.521,92.41,65.852,90.828,68.099,87.659C70.341,84.493,71.465,79.409,71.465,72.406C71.465,67.091,70.367,62.935,68.177,59.94C65.983,56.9471,62.73,55.4501,58.417,55.4501C54.067,55.4501,50.666,56.8781,48.214,59.7301C45.759,62.583,44.534,66.231,44.534,70.673C44.534,77.604,45.68,82.96,47.978,86.739C50.275,90.521,53.65,92.41,58.104,92.41z" fill="url(#XMLID_2_)"/>
  <defs>
    <linearGradient gradientUnits="userSpaceOnUse" id="XMLID_2_" x1="37.5859" x2="85.5104" y1="35.4185" y2="83.3429">
      <stop offset="0" stop-color="#9999FF"/>
      <stop offset="0.6588" stop-color="#7878BD"/>
      <stop offset="1" stop-color="#666699"/>
    </linearGradient>
  </defs>
</svg>
