<?xml version="1.0" encoding="utf-8"?>
<!-- Decoded by svgb2svg converter version 1.1.0 -->
<!DOCTYPE svg PUBLIC "-//W3C//DTD SVG 1.0//EN" "http://www.w3.org/TR/2001/REC-SVG-20010904/DTD/svg10.dtd">
<svg xmlns="http://www.w3.org/2000/svg" version="1.1" id="Layer_1" width="50" height="46" viewBox="0 0 50 46" xml:space="preserve">
  <rect fill="none" width="50" height="46"/>
  <path opacity="0.5" d="M40.876,24.152L40.876,19.946C40.876,19.394,40.43,18.946,39.876,18.946L21.876,18.946C21.323,18.946,20.876,19.394,20.876,19.946L20.876,34.946C20.876,35.5,21.323,35.946,21.876,35.946L39.876,35.946C40.43,35.946,40.876,35.5,40.876,34.946L40.876,29.151L49.945,32.946L49.945,19.946L40.876,24.152z"/>
  <path fill="#ADADAD" opacity="0.5" d="M47.447,22.417L39.077,26.298L39.077,22.498C39.077,22.002,38.675,21.598,38.177,21.598L25.577,21.598C25.08,21.598,24.677,22.002,24.677,22.498L24.677,32.398C24.677,32.894,25.08,33.295,25.577,33.295L38.177,33.295C38.675,33.295,39.077,32.894,39.077,32.398L39.077,27.101L47.447,30.603L47.447,22.417z"/>
  <linearGradient id="XMLID_35_" gradientUnits="userSpaceOnUse" x1="12.9932" y1="30.498" x2="19.2644" y2="13.4363" gradientTransform="matrix(1 0 0 -1 0.1377 44.834)">
    <stop offset="0" stop-color="#0D0D0D"/>
    <stop offset="0.4494" stop-color="#505050"/>
    <stop offset="0.6348" stop-color="#4E4E4E"/>
    <stop offset="1" stop-color="#313131"/>
  </linearGradient>
  <path fill="url(#XMLID_35_)" opacity="0.5" d="M21.979,12.02C19.982,12.468,14.683,17.318,12.848,19.644C11.015,21.964,7.957,26.126,7.917,31.749C7.905,33.159,7.906,34.589,7.911,35.934C8.287,35.705,8.671,35.481,9.076,35.262C13.712,32.786,16.701,32.323,18.1,32.274C18.106,32.282,18.109,32.289,18.111,32.295C17.772,31.735,15.252,27.504,15.209,24.713C15.162,21.717,16.535,19.916,18.959,17.732C21.379,15.545,22.423,14.36,23.567,13.694C24.706,13.03,25.2249,12.413,25.652,12.604C25.652,12.601,23.973,11.574,21.979,12.02z"/>
  <linearGradient id="XMLID_36_" gradientUnits="userSpaceOnUse" x1="1.7437" y1="3.3711" x2="17.8803" y2="12.6844" gradientTransform="matrix(1 0 0 -1 0.1377 44.834)">
    <stop offset="0.1124" stop-color="#454545"/>
    <stop offset="0.5618" stop-color="#5F5F5F"/>
    <stop offset="1" stop-color="#454545"/>
  </linearGradient>
  <path fill="url(#XMLID_36_)" opacity="0.5" d="M18.1,32.273C16.701,32.324,13.711,32.787,9.076,35.261C4.535,37.685,1.988,41.031,1.318,41.991L2.787,43.001C3.537,41.944,5.86,38.935,9.084,37.147C12.098,35.477,15.869,34.405,18.152,33.856L18.152,32.352C18.152,32.355,18.131,32.326,18.1,32.273z"/>
  <linearGradient id="XMLID_37_" gradientUnits="userSpaceOnUse" x1="2.6494" y1="6.3125" x2="18.0151" y2="6.3125" gradientTransform="matrix(1 0 0 -1 0.1377 44.834)">
    <stop offset="0" stop-color="#151515"/>
    <stop offset="0.5618" stop-color="#313131"/>
    <stop offset="1" stop-color="#4E4E4E"/>
  </linearGradient>
  <path fill="url(#XMLID_37_)" opacity="0.5" d="M2.787,43.003L3.051,43.184C3.051,43.184,10.079,41.091,12.17,39.382C14.258,37.671,18.153,34.111,18.153,34.111L18.153,33.859C15.87,34.408,12.099,35.48,9.085,37.15C5.859,38.936,3.536,41.949,2.787,43.003z"/>
  <path fill="#B8B8B8" opacity="0.5" d="M49.174,5.845C49.194,5.852,49.207,5.858,49.207,5.858C49.207,5.858,49.191,5.852,49.174,5.845zM35.293,2.629C29.832,2.771,26.176,3.91,21.901,6.901C21.378,7.266,20.827,7.686,20.258,8.145C22.284,6.725,26.018,4.381,28.659,4.26C32.454,4.092,35.181,5.323,37.4,6.307C38.008,6.578,38.995,7.25,40.095,8.082C42.291,6.74,43.924,6.061,45.652,5.973C46.839,5.915,48.122,5.868,49.14,5.83C48.395,5.541,40.491,2.495,35.293,2.629z"/>
  <radialGradient id="XMLID_38_" cx="31.1416" cy="27.5703" r="21.2307" gradientTransform="matrix(1 0 0 -1 0.1377 44.834)" gradientUnits="userSpaceOnUse">
    <stop offset="0.0281" stop-color="#3D3D3D"/>
    <stop offset="0.4494" stop-color="#909090"/>
    <stop offset="0.6629" stop-color="#909090"/>
    <stop offset="0.8933" stop-color="#878787"/>
    <stop offset="0.9775" stop-color="#313131"/>
  </radialGradient>
  <path fill="url(#XMLID_38_)" opacity="0.5" d="M31.479,17.835C31.452,17.822,31.418,17.804,31.389,17.787C31.387,17.787,31.387,17.787,31.387,17.789C31.418,17.806,31.45,17.82,31.479,17.835zM49.208,5.858C49.208,5.858,49.184,5.847,49.145,5.832C48.124,5.869,46.841,5.917,45.658,5.975C43.18,6.098,40.91,7.436,36.889,10.196C33.841,12.293,31.12,15.178,29.985,16.452C30.561,17.1,31.043,17.599,31.391,17.789C32.751,16.522,37.819,11.852,40.3,10.279C43.18,8.452,44.764,7.964,47.647,7.762C48.397,7.709,49.014,7.673,49.524,7.655L49.543,7.757L49.208,5.858z"/>
  <linearGradient id="XMLID_39_" gradientUnits="userSpaceOnUse" x1="31.249" y1="32.0674" x2="49.4004" y2="32.0674" gradientTransform="matrix(1 0 0 -1 0.1377 44.834)">
    <stop offset="0" stop-color="#292929"/>
    <stop offset="1" stop-color="#1C1C1C"/>
  </linearGradient>
  <path fill="url(#XMLID_39_)" opacity="0.5" d="M49.521,7.654C49.011,7.673,48.394,7.709,47.644,7.761C44.761,7.962,43.176,8.45,40.297,10.278C37.814,11.851,32.744,16.523,31.386,17.79C31.457,17.83,31.529,17.861,31.586,17.871C32.108,17.967,36.524,17.207,38.899,16.02C41.272,14.832,46.024,11.366,47.494,9.894C48.965,8.421,49.537,7.755,49.537,7.755L49.521,7.654z"/>
  <linearGradient id="XMLID_40_" gradientUnits="userSpaceOnUse" x1="21.3872" y1="27.6719" x2="1.7451" y2="5.4478" gradientTransform="matrix(1 0 0 -1 0.1377 44.834)">
    <stop offset="0" stop-color="#808080"/>
    <stop offset="0.5225" stop-color="#4E4E4E"/>
    <stop offset="1" stop-color="#313131"/>
  </linearGradient>
  <path fill="url(#XMLID_40_)" opacity="0.5" d="M1.365,41.977C1.976,41.098,4.151,38.248,7.961,35.915C7.954,34.566,7.954,33.143,7.964,31.73C8.006,26.103,11.062,21.944,12.897,19.622C14.73,17.299,20.028,12.449,22.025,12.001C24.024,11.553,25.701,12.58,25.701,12.58C26.131,12.768,27.793,13.911,28.98,15.239C29.355,15.661,29.709,16.067,30.0309,16.43C31.1659,15.158,33.886,12.272,36.935,10.175C38.1479,9.342,39.2009,8.643,40.1479,8.062C39.0439,7.231,38.0619,6.559,37.451,6.287C35.232,5.309,32.506,4.072,28.709,4.243C26.068,4.36,22.337,6.707,20.308,8.124C16.21,11.424,11.105,16.854,8.23,20.272C4.952,24.164,2.91,28.964,2.388,32.24C1.865,35.517,1.296,41.928,1.296,41.928"/>
</svg>
