<?xml version="1.0" encoding="utf-8"?>
<!-- Decoded by svgb2svg converter version 1.1.0 -->
<!DOCTYPE svg PUBLIC "-//W3C//DTD SVG 1.0//EN" "http://www.w3.org/TR/2001/REC-SVG-20010904/DTD/svg10.dtd">
<svg xmlns="http://www.w3.org/2000/svg" baseProfile="tiny" height="30" viewBox="0 0 40 30" width="40">
  <g>
    <rect fill="none" height="30" width="40"/>
    <path d="M26.572,26.887C26.091,26.768,13.517,23.883,12.97,23.744C12.423,23.607,12.063,23.625,11.592,23.805C11.122,23.987,10.131,24.387,9.85,24.502C9.389,24.693,9.401,25.104,10.154,25.313C10.438,25.389,23.487,28.745,24.144,28.92C24.799,29.094,25.435,28.963,25.723,28.744C26.012,28.525,26.763,28.029,27.146,27.681C27.499,27.357,27.051,27.006,26.572,26.887z" opacity="0.06" stroke-opacity="0.06"/>
    <path d="M26.339,26.969C25.36,26.725,13.415,23.994,12.941,23.875C12.412,23.742,12.08,23.764,11.639,23.934C11.247,24.082,10.419,24.42,10.144,24.534C9.707,24.71,9.76,25.063,10.412,25.245C11.238,25.47,23.541,28.62,24.179,28.788C24.801,28.956,25.395,28.829,25.646,28.638C25.92,28.431,26.579,28.023,26.874,27.722C27.222,27.455,26.816,27.086,26.339,26.969z" opacity="0.06" stroke-opacity="0.06"/>
    <path d="M11.684,24.059C11.371,24.18,10.706,24.452,10.437,24.561C10.026,24.725,10.119,25.022,10.666,25.172C12.036,25.549,23.591,28.492,24.209,28.656C24.804,28.816,25.351,28.689,25.568,28.525C25.761,28.38,26.335,28.029,26.592,27.761C26.914,27.515,26.576,27.165,26.106,27.05C24.628,26.681,13.31,24.107,12.91,24.005C12.399,23.881,12.096,23.902,11.684,24.059z" opacity="0.06" stroke-opacity="0.06"/>
    <path d="M11.729,24.186C11.494,24.276,10.994,24.481,10.73,24.588C10.343,24.738,10.476,24.981,10.919,25.102C12.835,25.627,23.644,28.366,24.241,28.528C24.804,28.678,25.307,28.555,25.492,28.419C25.635,28.31,26.087,27.976,26.316,27.8C26.607,27.577,26.34,27.247,25.874,27.132C23.896,26.638,13.206,24.222,12.877,24.14C12.387,24.016,12.11,24.037,11.729,24.186z" opacity="0.06" stroke-opacity="0.06"/>
    <path d="M11.777,24.313C11.618,24.372,11.28,24.512,11.023,24.616C10.66,24.755,10.834,24.938,11.175,25.034C13.634,25.708,23.695,28.243,24.275,28.395C24.804,28.54,25.266,28.416,25.415,28.309C25.511,28.237,25.864,27.975,26.042,27.84C26.302,27.637,26.105,27.328,25.644,27.213C23.167,26.594,13.103,24.332,12.849,24.272C12.375,24.152,12.127,24.176,11.777,24.313z" opacity="0.06" stroke-opacity="0.06"/>
    <path d="M11.821,24.438C11.744,24.469,11.567,24.543,11.315,24.645C10.978,24.768,11.192,24.899,11.429,24.963C14.432,25.785,23.746,28.117,24.308,28.266C24.804,28.399,25.224,28.282,25.337,28.2C25.385,28.165,25.637,27.979,25.766,27.878C25.995,27.7,25.868,27.409,25.411,27.296C22.435,26.552,12.998,24.446,12.817,24.401C12.363,24.287,12.143,24.314,11.821,24.438z" opacity="0.06" stroke-opacity="0.06"/>
    <path d="M11.867,24.564C11.867,24.564,11.854,24.572,11.608,24.671C11.296,24.782,11.55,24.855,11.686,24.892C15.233,25.863,23.799,27.99,24.341,28.134C24.806,28.259,25.183,28.144,25.261,28.089C25.259,28.089,25.41,27.98,25.49,27.919C25.688,27.757,25.631,27.487,25.179,27.374C21.704,26.505,12.894,24.558,12.786,24.532C12.352,24.422,12.159,24.451,11.867,24.564z" opacity="0.06" stroke-opacity="0.06"/>
    <path d="M9.781,11.415C9.794,12.274,9.809,13.108,9.824,13.825C9.887,16.831,10.311,22.842,10.311,22.842C10.402,23.567,10.371,23.662,10.675,24.057C10.978,24.452,11.403,24.483,12.193,24.664C12.982,24.846,14.53,25.271,17.262,25.908C19.994,26.547,21.729,26.953,22.637,27.201C23.293,27.381,23.991,27.584,24.477,27.433C24.93,27.294,25.186,27.177,25.248,26.515C25.275,26.208,25.368,23.386,25.4359,20.927L9.781,11.415z" fill="#FFFFFF"/>
    <linearGradient gradientUnits="userSpaceOnUse" id="XMLID_8_" x1="24.6016" x2="24.6033" y1="27.3877" y2="27.3932">
      <stop offset="0" stop-color="#222221"/>
      <stop offset="0.1124" stop-color="#BFBFC0"/>
      <stop offset="0.1292" stop-color="#FFFFFF"/>
      <stop offset="0.1742" stop-color="#FFFFFF"/>
      <stop offset="0.3034" stop-color="#E9E9E9"/>
      <stop offset="0.4781" stop-color="#AFAFAF"/>
      <stop offset="0.6495" stop-color="#7E7E7E"/>
      <stop offset="0.7991" stop-color="#5B5B5B"/>
      <stop offset="0.921" stop-color="#454545"/>
      <stop offset="1" stop-color="#3D3D3D"/>
    </linearGradient>
    <path d="M24.631,27.379C24.593,27.395,24.568,27.406,24.577,27.402C24.598,27.395,24.611,27.387,24.631,27.379z" fill="url(#XMLID_8_)"/>
    <linearGradient gradientUnits="userSpaceOnUse" id="XMLID_9_" x1="24.9521" x2="26.768" y1="21.0244" y2="26.6898">
      <stop offset="0" stop-color="#FAFAFA"/>
      <stop offset="0.3034" stop-color="#FAFAFA"/>
      <stop offset="1" stop-color="#3D3D3D"/>
    </linearGradient>
    <path d="M27.069,20.273L25.442,20.929C25.385,23.392,25.316,26.216,25.248,26.515C25.146,26.956,25.185,27.165,24.631,27.378C24.824,27.302,25.538,27.023,25.886,26.87C26.282,26.696,26.544,26.665,26.706,26.128C26.813,25.776,26.907,24.462,26.994,22.028L27.069,20.273z" fill="url(#XMLID_9_)"/>
    <radialGradient cx="4.269" cy="11.8916" fx="4.269" fy="11.8916" gradientTransform="matrix(0.8922 0 0 0.8922 6.7501 1.6069)" gradientUnits="userSpaceOnUse" id="XMLID_10_" r="21.3807">
      <stop offset="0" stop-color="#F3F3F3"/>
      <stop offset="0.0056" stop-color="#F3F3F3"/>
      <stop offset="0.1838" stop-color="#ECECEC"/>
      <stop offset="0.4421" stop-color="#D9D9D9"/>
      <stop offset="0.7474" stop-color="#B9B9B9"/>
      <stop offset="1" stop-color="#9A9A9A"/>
    </radialGradient>
    <path d="M12.733,13.471L12.739,14.038L11.627,13.886L11.632,12.802L10.417,12.052C10.423,12.826,10.431,13.802,10.436,14.481C10.451,16.583,10.743,22.093,10.77,22.528C10.799,22.962,10.897,23.059,11.079,23.311C11.262,23.563,11.417,23.76,11.808,23.86C12.2,23.958,14.949,24.614,16.407,24.979C17.865,25.3459,22.703,26.4519,23.15,26.4929C23.6,26.5359,23.882,26.2269,24.0359,25.837C24.1529,25.536,24.1719,22.304,24.1919,20.423L12.733,13.471z" fill="url(#XMLID_10_)"/>
    <path d="M24.19,20.422C24.169,22.555,24.146,25.533,24.035,25.836C23.885,26.232,23.655,26.383,23.411,26.473C23.425,26.469,23.773,26.403,23.876,26.356C24.069,26.264,24.247,26.014,24.336,25.659C24.398,25.417,24.431,22.585,24.459,20.333L24.19,20.422z" fill="#636363"/>
    <path d="M21.919,23.605C21.998,23.619,22.063,23.632,22.13,23.646C22.127,24.13,22.125,24.443,22.123,24.982C22.562,25.076,22.824,25.13,23.205,25.211C23.205,25.274,23.203,25.336,23.203,25.404C23.207,25.404,23.209,25.404,23.214,25.404C23.221,24.791,23.221,24.482,23.229,23.865C22.704,23.76,22.445,23.707,21.919,23.603L21.919,23.605z" fill="#FFFFFF"/>
    <path d="M21.942,20.389C22.02,20.401,22.085,20.412,22.153,20.426C22.149,20.912,22.147,21.225,22.142,21.766C22.586,21.85,22.851,21.899,23.238,21.969C23.236,22.028,23.236,22.09,23.236,22.157C23.24,22.157,23.242,22.157,23.245,22.157C23.254,21.544,23.256,21.233,23.263,20.618C22.735,20.524,22.47,20.477,21.943,20.386C21.942,20.387,21.942,20.387,21.942,20.389z" fill="#FFFFFF"/>
    <path d="M11.581,21.533C11.581,21.535,11.581,21.535,11.581,21.535C11.66,21.551,11.727,21.564,11.797,21.578C11.807,22.016,11.813,22.303,11.824,22.795C12.262,22.889,12.523,22.943,12.901,23.024C12.903,23.09,12.904,23.147,12.906,23.219C12.908,23.219,12.912,23.219,12.916,23.221C12.905,22.651,12.9,22.366,12.891,21.795C12.366,21.688,12.104,21.639,11.581,21.533z" fill="#FFFFFF"/>
    <path d="M11.758,19.824C12.2,19.908,12.465,19.957,12.848,20.027C12.849,20.09,12.851,20.146,12.852,20.215C12.855,20.217,12.858,20.217,12.862,20.217C12.852,19.649,12.846,19.363,12.837,18.795C12.309,18.703,12.045,18.658,11.517,18.566L11.517,18.567C11.596,18.581,11.663,18.591,11.733,18.604C11.741,19.045,11.747,19.33,11.758,19.824z" fill="#FFFFFF"/>
    <path d="M11.693,16.857C12.139,16.928,12.407,16.972,12.794,17.035C12.796,17.094,12.796,17.148,12.797,17.217C12.802,17.217,12.804,17.217,12.808,17.218C12.797,16.647,12.791,16.364,12.781,15.794C12.249,15.714,11.984,15.674,11.451,15.595C11.53,15.609,11.597,15.617,11.667,15.628C11.676,16.073,11.682,16.36,11.693,16.857z" fill="#FFFFFF"/>
    <path d="M12.739,14.038C12.347,13.985,12.077,13.949,11.627,13.886C11.616,13.389,11.628,12.996,11.619,12.549L11.374,12.625C11.388,13.19,11.394,13.472,11.406,14.035C11.939,14.108,12.208,14.145,12.742,14.218C12.741,14.151,12.74,14.098,12.739,14.038z" fill="#474747"/>
    <path d="M22.13,23.646C22.059,23.632,21.992,23.619,21.909,23.603C21.905,24.212,21.903,24.519,21.9,25.13C22.421,25.241,22.682,25.296,23.203,25.405C23.203,25.337,23.205,25.274,23.205,25.21C22.824,25.13,22.562,25.075,22.123,24.981C22.125,24.443,22.127,24.131,22.13,23.646z" fill="#474747"/>
    <path d="M22.153,20.426C22.081,20.412,22.015,20.401,21.931,20.387C21.927,20.996,21.924,21.303,21.92,21.914C22.444,22.012,22.71,22.059,23.235,22.156C23.235,22.092,23.235,22.027,23.237,21.968C22.85,21.898,22.586,21.849,22.141,21.765C22.147,21.225,22.149,20.912,22.153,20.426z" fill="#474747"/>
    <path d="M12.794,17.035C12.407,16.972,12.14,16.929,11.693,16.857C11.681,16.36,11.675,16.073,11.666,15.628C11.593,15.617,11.524,15.607,11.44,15.595C11.452,16.158,11.459,16.44,11.471,17.005C12.001,17.09,12.267,17.132,12.796,17.218C12.796,17.149,12.796,17.096,12.794,17.035z" fill="#474747"/>
    <path d="M12.848,20.027C12.465,19.957,12.201,19.908,11.758,19.824C11.747,19.33,11.741,19.045,11.732,18.603C11.659,18.591,11.59,18.581,11.505,18.565C11.519,19.128,11.525,19.41,11.536,19.972C12.061,20.07,12.326,20.118,12.851,20.216C12.851,20.148,12.849,20.092,12.848,20.027z" fill="#474747"/>
    <path d="M11.824,22.795C11.812,22.303,11.806,22.016,11.797,21.578C11.724,21.564,11.655,21.551,11.571,21.533C11.583,22.097,11.59,22.381,11.601,22.943C12.123,23.054,12.383,23.109,12.906,23.22C12.904,23.148,12.903,23.089,12.901,23.023C12.523,22.943,12.262,22.889,11.824,22.795z" fill="#474747"/>
    <path d="M28.781,15.879C28.841,13.297,28.903,8.439,28.781,7.679C28.659,6.92,27.415,5.584,26.928,4.885C26.443,4.188,25.259,2.579,24.531,2.184C23.802,1.788,20.614,1.668,18.975,1.577C17.336,1.487,14.997,1.366,14.452,1.395C13.905,1.425,13.571,1.789,13.267,2.276C13.037,2.646,13.034,5.654,13.073,8.395L28.728,17.908C28.749,17.174,28.768,16.471,28.781,15.879z" fill="#FFFFFF"/>
    <linearGradient gradientUnits="userSpaceOnUse" id="XMLID_11_" x1="20.9121" x2="26.9694" y1="-0.4346" y2="18.4643">
      <stop offset="0" stop-color="#222221"/>
      <stop offset="0.0955" stop-color="#BFBFC0"/>
      <stop offset="0.1966" stop-color="#FFFFFF"/>
      <stop offset="0.4326" stop-color="#FFFFFF"/>
      <stop offset="0.5337" stop-color="#E9E9E9"/>
      <stop offset="0.7884" stop-color="#B1B1B1"/>
      <stop offset="1" stop-color="#808080"/>
    </linearGradient>
    <path d="M30.361,17.181C30.361,17.181,30.347,17.01,30.351,16.846C30.454,13.192,30.506,7.986,30.405,7.269C30.302,6.555,29.514,5.533,28.983,4.86C28.452,4.186,27.123,2.464,26.49,1.953C25.857,1.444,22.67,1.349,20.974,1.247C19.28,1.144,17.197,1.022,16.441,1.001C15.915,0.9871,14.976,1.241,14.453,1.396C14.999,1.367,17.337,1.488,18.975,1.578C20.614,1.669,23.802,1.79,24.531,2.185C25.26,2.58,26.443,4.189,26.928,4.886C27.414,5.585,28.658,6.921,28.781,7.68C28.903,8.44,28.841,13.298,28.781,15.88C28.767,16.473,28.752,17.177,28.734,17.912L30.361,17.181z" fill="url(#XMLID_11_)"/>
    <radialGradient cx="7.9473" cy="1.5142" fx="7.9473" fy="1.5142" gradientTransform="matrix(0.8922 0 0 0.8922 6.7501 1.6069)" gradientUnits="userSpaceOnUse" id="XMLID_12_" r="21.3977">
      <stop offset="0" stop-color="#F3F3F3"/>
      <stop offset="0.0056" stop-color="#F3F3F3"/>
      <stop offset="0.1838" stop-color="#ECECEC"/>
      <stop offset="0.4421" stop-color="#D9D9D9"/>
      <stop offset="0.7474" stop-color="#B9B9B9"/>
      <stop offset="1" stop-color="#9A9A9A"/>
    </radialGradient>
    <path d="M27.495,16.098C27.521,14.219,27.605,7.91,27.579,7.672C27.55,7.434,26.246,5.989,25.868,5.456C25.488,4.925,24.291,3.566,24.291,3.566C24.291,3.566,21.185,3.191,19.249,3.064C17.315,2.938,14.945,2.799,14.945,2.799C14.61,2.799,14.341,2.756,14.131,2.91C13.922,3.064,13.781,3.4,13.725,3.906C13.6871,4.247,13.6961,6.628,13.7091,8.782L27.483,17.153C27.486,16.755,27.491,16.392,27.495,16.098z" fill="url(#XMLID_12_)"/>
    <linearGradient gradientUnits="userSpaceOnUse" id="XMLID_13_" x1="27.5547" x2="23.736" y1="7.3262" y2="5.0349">
      <stop offset="0" stop-color="#404040"/>
      <stop offset="1" stop-color="#9C9C9C"/>
    </linearGradient>
    <path d="M25.749,7.65C26.533,7.796,27.663,8.062,27.663,8.062L27.688,7.57L24.461,3.436C24.461,3.436,24.188,3.511,23.964,3.823C23.769,4.1,23.704,4.325,23.56,4.886C23.256,6.08,23.28,6.8,23.771,7.092C24.263,7.383,24.967,7.504,25.749,7.65z" fill="url(#XMLID_13_)"/>
    <path d="M27.79,14.877C27.835,13.353,27.85,7.629,27.85,7.495C27.85,7.363,26.68,6.06,26.222,5.438C25.764,4.816,24.702,3.521,24.554,3.402C24.407,3.284,21.087,3.036,19.874,2.9321C18.661,2.8281,14.998,2.6591,14.807,2.6591C14.68,2.6591,14.451,2.7581,14.306,2.826C14.485,2.7741,14.695,2.798,14.946,2.798C14.946,2.798,17.316,2.937,19.25,3.063C21.186,3.19,24.292,3.565,24.292,3.565C24.292,3.565,25.489,4.924,25.869,5.455C26.247,5.988,27.551,7.433,27.58,7.671C27.606,7.909,27.522,14.218,27.496,16.097C27.492,16.391,27.487,16.753,27.483,17.15L27.752,17.313C27.764,16.275,27.776,15.359,27.79,14.877z" fill="#474747"/>
    <path d="M14.611,6.638C14.689,6.645,14.757,6.652,14.825,6.659C14.836,7.11,14.843,7.398,14.853,7.898C15.308,7.949,15.581,7.98,15.976,8.024C15.978,8.081,15.979,8.132,15.979,8.195C15.983,8.195,15.986,8.196,15.989,8.197C15.979,7.627,15.973,7.342,15.963,6.772C15.422,6.718,15.151,6.691,14.611,6.636L14.611,6.638z" fill="#FFFFFF"/>
    <path d="M14.788,4.928C15.248,4.969,15.521,4.992,15.923,5.03C15.923,5.086,15.924,5.134,15.925,5.195C15.93,5.196,15.932,5.197,15.936,5.197C15.925,4.627,15.921,4.341,15.91,3.772C15.365,3.73,15.092,3.709,14.547,3.667L14.547,3.668C14.625,3.674,14.693,3.679,14.761,3.685C14.771,4.137,14.776,4.426,14.788,4.928z" fill="#FFFFFF"/>
    <path d="M25.479,12.313C25.93,12.376,26.201,12.413,26.594,12.466C26.594,12.522,26.592,12.579,26.592,12.642C26.596,12.642,26.599,12.642,26.603,12.643C26.61,12.026,26.613,11.718,26.619,11.101C26.082,11.035,25.813,11,25.277,10.934L25.277,10.936C25.353,10.945,25.42,10.954,25.488,10.962C25.484,11.456,25.481,11.768,25.479,12.313z" fill="#FFFFFF"/>
    <path d="M25.5,9.096C25.957,9.148,26.229,9.178,26.628,9.223C26.626,9.279,26.626,9.334,26.626,9.394C26.63,9.395,26.631,9.395,26.637,9.395C26.642,8.778,26.646,8.47,26.653,7.854C26.11,7.8,25.84,7.773,25.298,7.718L25.298,7.72C25.375,7.727,25.442,7.734,25.509,7.741C25.506,8.237,25.504,8.55,25.5,9.096z" fill="#FFFFFF"/>
    <path d="M25.457,15.531C25.904,15.602,26.173,15.646,26.561,15.709C26.561,15.768,26.561,15.828,26.559,15.892C26.563,15.892,26.566,15.892,26.57,15.893C26.577,15.276,26.581,14.966,26.586,14.351C26.055,14.271,25.788,14.231,25.256,14.152L25.256,14.154C25.333,14.164,25.4,14.175,25.467,14.185C25.464,14.675,25.46,14.987,25.457,15.531z" fill="#FFFFFF"/>
    <path d="M16.018,9.772C15.671,9.73,15.433,9.7,15.165,9.667L16.025,10.19C16.023,10.063,16.02,9.93,16.018,9.772z" fill="#FFFFFF"/>
    <path d="M15.925,5.196C15.924,5.133,15.923,5.085,15.923,5.029C15.522,4.992,15.248,4.968,14.788,4.927C14.776,4.425,14.77,4.136,14.76,3.683C14.688,3.678,14.619,3.673,14.535,3.665C14.548,4.23,14.555,4.511,14.565,5.075C15.11,5.125,15.381,5.147,15.925,5.196z" fill="#474747"/>
    <path d="M14.825,6.659C14.754,6.652,14.685,6.645,14.6,6.636C14.613,7.201,14.62,7.482,14.631,8.046C15.171,8.107,15.441,8.137,15.979,8.198C15.979,8.134,15.978,8.083,15.976,8.025C15.58,7.981,15.308,7.95,14.853,7.899C14.843,7.397,14.836,7.11,14.825,6.659z" fill="#474747"/>
    <path d="M26.562,15.708C26.173,15.645,25.905,15.602,25.458,15.53C25.461,14.986,25.465,14.675,25.468,14.185C25.395,14.174,25.329,14.164,25.247,14.152C25.243,14.762,25.24,15.069,25.236,15.678C25.766,15.763,26.031,15.805,26.56,15.892C26.562,15.827,26.562,15.768,26.562,15.708z" fill="#474747"/>
    <path d="M26.628,9.224C26.229,9.179,25.957,9.149,25.5,9.097C25.504,8.551,25.506,8.238,25.509,7.742C25.438,7.735,25.371,7.728,25.288,7.72C25.284,8.331,25.282,8.637,25.279,9.246C25.817,9.307,26.088,9.336,26.626,9.397C26.626,9.335,26.626,9.279,26.628,9.224z" fill="#474747"/>
    <path d="M26.595,12.466C26.201,12.412,25.931,12.376,25.48,12.313C25.482,11.768,25.485,11.456,25.489,10.962C25.418,10.954,25.351,10.945,25.269,10.934C25.264,11.544,25.262,11.851,25.256,12.461C25.791,12.534,26.06,12.57,26.593,12.644C26.593,12.582,26.595,12.524,26.595,12.466z" fill="#474747"/>
    <path d="M23.351,6.467C23.484,6.884,23.51,7.224,25.116,7.55C26.485,7.828,26.438,7.813,27.622,8.082L27.616,7.639C27.616,7.639,25.982,7.447,25.168,7.285C23.784,7.007,23.707,6.843,23.351,6.467z"/>
    <linearGradient gradientUnits="userSpaceOnUse" id="XMLID_14_" x1="16.3647" x2="20.5547" y1="9.4146" y2="22.4873">
      <stop offset="0" stop-color="#CFCFCE"/>
      <stop offset="1" stop-color="#2E2D2E"/>
    </linearGradient>
    <path d="M9.781,11.415L10.651,11.968L10.417,12.051L11.374,12.624L11.619,12.548L13.03,13.379L12.733,13.471L24.19,20.422L24.459,20.332C24.459,20.332,25.3969,20.904,25.4419,20.93L27.0689,20.274L26.364,19.797L26.641,19.713L12.339,11.11L12.173,11.193L11.592,10.778L9.781,11.415z" fill="url(#XMLID_14_)"/>
  </g>
</svg>
