<?xml version="1.0" encoding="utf-8"?>
<!-- Decoded by svgb2svg converter version 1.1.0 -->
<!DOCTYPE svg PUBLIC "-//W3C//DTD SVG 1.0//EN" "http://www.w3.org/TR/2001/REC-SVG-20010904/DTD/svg10.dtd">
<svg xmlns="http://www.w3.org/2000/svg" baseProfile="tiny" height="32" version="1.1" viewBox="0 0 32 32" width="32">
  <rect fill="none" height="32" width="32"/>
  <path d="M29,2.111L8,2.111C6.343,2.111,5,3.565,5,5.222L5,11L2,11C0.904,11,0,11.868,0,12.965L0.015,25.965C0.015,27.063,0.904,27.965,2,27.965L7,27.965L7,31.965C7,31.965,10.676,32.289,12,30.965C14,28.965,15,27.965,15,27.965L15,31.111C15,31.111,17,33.111,19,31.111C20.251,29.859,22.773,27.045,25,25.111L29,25.111C30.656,25.111,32,23.767,32,22.111L32,5.223C32,3.565,30.656,2.111,29,2.111z" fill="#FFFFFF"/>
  <path d="M27,4.223L10,4.223C8.446,4.254,7.011,6.023,7.029,7.223L7.024,12.938L17,22.986L17,29.111L18,29.222L24.615,22.955L27,22.986C28.354,22.933,29.883,21.581,30,20.222L30,7.222C30,5.935,28.354,4.229,27,4.223z" fill="#622300"/>
  <path d="M26,5.223L11,5.223C9.343,5.223,8,6.566,8,8.223L8,12.938L18,21.891L18,27.223L23.93,21.891L26,21.891C27.656,21.891,29,20.797,29,19.141L29,8.223C29,6.565,27.656,5.223,26,5.223z" fill="#F3DA17"/>
  <path d="M26,10C26,10.553,25.553,11,25,11L12,11C11.448,11,11,10.553,11,10L11,10C11,9.447,11.448,9,12,9L25,9C25.553,9,26,9.447,26,10L26,10z" fill="#622300"/>
  <path d="M25,15L18,15L18,14.95C18,14.647,17.858,14.31,17.641,14L25,14C25.553,14,26,13.553,26,13C26,12.447,25.553,12,25,12L12,12C11.461,12,11.027,12.429,11.007,12.965L3.974,12.965C2.946,12.986,1.996,14.156,2.008,14.95L2,23.215C2.019,24.246,2,25.965,4,25.965L9,25.965L9,29.965L10,29.965L14,25.965L16,25.965C16.896,25.93,18,25.965,18,23.965L18,17L25,17C25.553,17,26,16.553,26,16C26,15.447,25.553,15,25,15z" fill="#622300"/>
  <path d="M14.914,13.965L4.986,13.965C3.889,13.965,3,14.854,3,15.95L3,23.176C3,24.274,3.889,24.996,4.986,24.996L10,24.965L10,27.965L13,24.965L14.914,24.965C16.01,24.965,17,24.256,17,23.159L17,15.965C17,14.868,16.01,13.965,14.914,13.965z" fill="#F3DA17"/>
  <rect fill="#622300" height="2" width="10" x="5" y="17"/>
  <rect fill="#622300" height="2" width="10" x="5" y="20"/>
  <polygon fill="#CF4400" points="8 3 6 3 6 2 5 2 5 0 3 0 3 2 2 2 2 3 0 3 0 4.969 2 4.969 2 5.969 3 5.969 3 7.969 5 7.969 5 5.969 6 5.969 6 4.969 8 4.969"/>
</svg>
