<?xml version="1.0" encoding="utf-8"?>
<!-- Decoded by svgb2svg converter version 1.1.0 -->
<!DOCTYPE svg PUBLIC "-//W3C//DTD SVG 1.0//EN" "http://www.w3.org/TR/2001/REC-SVG-20010904/DTD/svg10.dtd">
<svg xmlns="http://www.w3.org/2000/svg" baseProfile="tiny" height="30" version="1.1" viewBox="0 0 40 30" width="40">
  <linearGradient gradientUnits="userSpaceOnUse" id="XMLID_164_" x1="-5.2949" x2="-3.1881" y1="32.5341" y2="34.6409">
    <stop offset="0" stop-color="#FFFF00"/>
    <stop offset="0.5918" stop-color="#F2BD00"/>
    <stop offset="1" stop-color="#E88D00"/>
  </linearGradient>
  <rect fill="none" height="30" width="40"/>
  <rect fill="#FFFFFF" height="26" stroke="#000000" width="36" x="2" y="2"/>
  <rect fill="#FFFFFF" height="22" width="32" x="4.249" y="4.146"/>
  <rect fill="#CCCCCC" height="20" width="30" x="5.249" y="5.146"/>
  <linearGradient gradientUnits="userSpaceOnUse" id="XMLID_165_" x1="15.4185" x2="25.0204" y1="12.6933" y2="22.2951">
    <stop offset="0" stop-color="#CAE7EA"/>
    <stop offset="0.0549" stop-color="#C5E5EB"/>
    <stop offset="0.1203" stop-color="#B7E0EC"/>
    <stop offset="0.1909" stop-color="#9FD6EF"/>
    <stop offset="0.2653" stop-color="#7DC9F3"/>
    <stop offset="0.3426" stop-color="#52B9F8"/>
    <stop offset="0.4213" stop-color="#1EA5FE"/>
    <stop offset="0.4326" stop-color="#16A2FF"/>
    <stop offset="0.6124" stop-color="#0099FF"/>
  </linearGradient>
  <path d="M21.238,21.762L21.238,21.012L22.736,20.637L22.031,18.074L17.87,18.074L17.148,20.637L18.676,21.012L18.676,21.762L14.645,21.762L14.645,21.012L15.74,20.637L19.443,8.668L21.236,8.668L25.548,21.767L21.238,21.762zM21.708,16.949L19.974,10.724L18.209,16.949L21.708,16.949z" fill="url(#XMLID_165_)"/>
  <rect fill="#FFFFFF" height="22" width="10.313" x="22.145" y="3.938"/>
  <linearGradient gradientUnits="userSpaceOnUse" id="XMLID_166_" x1="24.7578" x2="29.392" y1="12.996" y2="17.6302">
    <stop offset="0" stop-color="#CAE7EA"/>
    <stop offset="0.0549" stop-color="#C5E5EB"/>
    <stop offset="0.1203" stop-color="#B7E0EC"/>
    <stop offset="0.1909" stop-color="#9FD6EF"/>
    <stop offset="0.2653" stop-color="#7DC9F3"/>
    <stop offset="0.3426" stop-color="#52B9F8"/>
    <stop offset="0.4213" stop-color="#1EA5FE"/>
    <stop offset="0.4326" stop-color="#16A2FF"/>
    <stop offset="0.6124" stop-color="#0099FF"/>
  </linearGradient>
  <polygon fill="url(#XMLID_166_)" points="27.643 11.247 26.404 12.483 28.395 14.474 23.279 14.474 23.279 16.15 28.395 16.15 26.404 18.141 27.643 19.377 31.708 15.313"/>
</svg>
